# ProBuilder 5.0.3
# https://unity3d.com/unity/features/worldbuilding/probuilder
# 2021-12-16 AM 9:28:58

mtllib ./Cylinder2.mtl
o Cylinder2

g Cylinder
v -1 -1 0
v -1 -0.3333333 0
v -0.7071068 -1 0.7071068
v -0.7071068 -0.3333333 0.7071068
v 5.960464E-08 -1 1
v 5.960464E-08 -0.3333333 1
v 0.7071068 -1 0.7071068
v 0.7071068 -0.3333333 0.7071068
v 1 -1 -5.960464E-08
v 1 -0.3333333 -5.960464E-08
v 0.7071068 -1 -0.7071067
v 0.7071068 -0.3333333 -0.7071067
v 0 -1 -1
v 0 -0.3333333 -1
v -0.7071066 -1 -0.7071069
v -0.7071066 -0.3333333 -0.7071069
v -1 0.3333334 0
v -0.7071068 0.3333334 0.7071068
v 5.960464E-08 0.3333334 1
v 0.7071068 0.3333334 0.7071068
v 1 0.3333334 -5.960464E-08
v 0.7071068 0.3333334 -0.7071067
v 0 0.3333334 -1
v -0.7071066 0.3333334 -0.7071069
v -1 1 0
v -0.7071068 1 0.7071068
v 5.960464E-08 1 1
v 0.7071068 1 0.7071068
v 1 1 -5.960464E-08
v 0.7071068 1 -0.7071067
v 0 1 -1
v -0.7071066 1 -0.7071069
v 0 -1 0

vt 0.3826834 -1
vt 0.3826834 -0.3333333
vt -0.3826835 -1
vt -0.3826835 -0.3333333
vt 0.3826834 0.3333334
vt -0.3826835 0.3333334
vt 0.3826834 1
vt -0.3826835 1
vt 1 0
vt 0 0
vt 0.7071068 0.7071068
vt -5.960464E-08 1
vt -0.7071068 0.7071068
vt -1 -5.960464E-08
vt -0.7071068 -0.7071067
vt 0 -1
vt 0.7071066 -0.7071069

vn 0.6785983 0.7345095 7.661531E-08
vn 1 0 1.129023E-07
vn 0.4798415 0.7345095 -0.4798415
vn 0.7071068 0 -0.7071068
vn -4.378018E-08 0.7345095 -0.6785983
vn -6.45156E-08 0 -1
vn -0.4798415 0.7345095 -0.4798415
vn -0.7630715 0 -0.646314
vn -0.805885 0.5815225 -0.1112695
vn -0.9965861 0 -0.08255987
vn -0.4798415 0.7345095 0.4798415
vn -0.7071068 0 0.7071068
vn -2.189009E-08 0.7345095 0.6785983
vn -3.22578E-08 0 1
vn 0.4798415 0.7345095 0.4798416
vn 0.7071067 0 0.7071068
vn -0.7971752 0 -0.603748
vn -1 0 1.61289E-08
vn 0 1 0

usemtl Collider
f 3/11/3 33/10/19 1/9/1
f 5/12/5 33/10/19 3/11/3
f 7/13/7 33/10/19 5/12/5
f 9/14/9 33/10/19 7/13/7
f 11/15/11 33/10/19 9/14/9
f 13/16/13 33/10/19 11/15/11
f 15/17/15 33/10/19 13/16/13
f 1/9/1 33/10/19 15/17/15
f 20/5/8 28/7/17 21/6/10
f 28/7/17 29/8/18 21/6/10
f 8/2/8 20/5/8 10/4/10
f 20/5/8 21/6/10 10/4/10
f 7/1/7 8/2/8 9/3/9
f 8/2/8 10/4/10 9/3/9
f 2/2/2 4/4/4 3/3/3
f 3/3/3 1/1/1 2/2/2
f 4/2/4 6/4/6 5/3/5
f 5/3/5 3/1/3 4/2/4
f 6/2/6 8/4/8 7/3/7
f 7/3/7 5/1/5 6/2/6
f 10/2/10 12/4/12 11/3/11
f 11/3/11 9/1/9 10/2/10
f 12/2/12 14/4/14 13/3/13
f 13/3/13 11/1/11 12/2/12
f 14/2/14 16/4/16 15/3/15
f 15/3/15 13/1/13 14/2/14
f 16/2/16 2/4/2 1/3/1
f 1/3/1 15/1/15 16/2/16
f 17/5/2 18/6/4 4/4/4
f 4/4/4 2/2/2 17/5/2
f 18/5/4 19/6/6 6/4/6
f 6/4/6 4/2/4 18/5/4
f 19/5/6 20/6/8 8/4/8
f 8/4/8 6/2/6 19/5/6
f 21/5/10 22/6/12 12/4/12
f 12/4/12 10/2/10 21/5/10
f 22/5/12 23/6/14 14/4/14
f 14/4/14 12/2/12 22/5/12
f 23/5/14 24/6/16 16/4/16
f 16/4/16 14/2/14 23/5/14
f 24/5/16 17/6/2 2/4/2
f 2/4/2 16/2/16 24/5/16
f 25/7/2 26/8/4 18/6/4
f 18/6/4 17/5/2 25/7/2
f 26/7/4 27/8/6 19/6/6
f 19/6/6 18/5/4 26/7/4
f 27/7/6 28/8/17 20/6/8
f 20/6/8 19/5/6 27/7/6
f 29/7/18 30/8/12 22/6/12
f 22/6/12 21/5/10 29/7/18
f 30/7/12 31/8/14 23/6/14
f 23/6/14 22/5/12 30/7/12
f 31/7/14 32/8/16 24/6/16
f 24/6/16 23/5/14 31/7/14
f 32/7/16 25/8/2 17/6/2
f 17/6/2 24/5/16 32/7/16

