# Blender v2.93.5 OBJ File: ''
# www.blender.org
mtllib 485_G_KYOC_124.mtl
o 485_G_KYOC_124.002
v 1.584485 22.069452 4.406330
v 6.435878 7.163259 3.265292
v 6.519741 24.017746 2.342360
v 11.018205 21.325405 -0.491073
v 10.972435 8.362046 1.230356
v 12.218575 6.917773 -2.521827
v 10.779457 -56.517933 -2.590455
v 11.621376 -55.404488 -0.655525
v -0.509072 -56.315704 3.593926
v -1.853987 46.766937 -6.781696
v 3.267197 45.920292 1.159316
v 7.166371 46.280148 -2.778341
v 1.815728 -55.284634 3.988838
v 12.909775 -17.497530 -0.925073
v -4.973514 46.683159 -0.121428
v -7.899015 8.629770 7.118514
v -7.724928 23.281054 6.784759
v -7.653443 37.978539 3.887182
v 12.725739 -19.336988 -2.659757
v 10.127652 -23.014875 1.105788
v 12.062009 -41.169380 -0.730853
v -3.746609 39.953056 4.543822
v -6.745768 39.507771 1.691533
v -2.269934 45.506721 4.003253
v 7.117107 45.926346 -4.105640
v 13.018368 -46.117992 -2.705603
v -2.767671 -21.314491 3.060801
v 7.956868 -37.190231 1.212456
v 11.085976 -54.624146 -4.228882
v 0.311522 -55.040165 -9.827971
v -7.102797 -20.965672 2.175065
v -1.230556 -55.865032 -8.931271
v -1.984508 37.046440 -7.887090
v -0.069236 45.779156 -7.958270
v -1.414749 -24.083542 -9.115004
v 5.933972 -47.481071 1.901324
v -6.204725 -55.748844 1.357646
v -5.914104 -54.108257 4.086490
v 7.277538 -3.400924 2.337366
v -5.790205 3.673592 7.081347
v -7.420097 -1.377955 6.758121
v -6.527540 -18.075058 3.473817
v -2.477757 -35.978416 3.904387
vt 0.095575 0.740038
vt 0.140501 0.592471
vt 0.142607 0.762370
vt 0.947071 0.943225
vt 0.932429 0.815645
vt 0.965221 0.808306
vt 0.576389 0.021825
vt 0.575397 0.021825
vt 0.575397 0.022817
vt 0.567701 0.992007
vt 0.660748 0.979526
vt 0.658145 0.999258
vt 0.172393 0.037590
vt 0.089094 0.012768
vt 0.066830 0.004578
vt 0.953948 0.585407
vt 0.593381 0.970560
vt 0.384715 0.601683
vt 0.384842 0.749458
vt 0.362379 0.902925
vt 0.962523 0.575763
vt 0.920305 0.540764
vt 0.941037 0.393715
vt 0.042178 0.927871
vt 0.000514 0.907040
vt 0.002284 0.749465
vt 0.007979 0.923618
vt 0.057384 0.987681
vt 0.024700 0.999499
vt 0.470747 0.993337
vt 0.566173 0.999273
vt 0.463639 0.997206
vt 0.181816 0.738495
vt 0.387424 0.027626
vt 0.402344 0.011531
vt 0.386355 0.096376
vt 0.753442 0.843008
vt 0.918942 0.943437
vt 0.731110 0.890040
vt 0.111036 0.990816
vt 0.047039 0.318768
vt 0.144820 0.185392
vt 0.167402 0.313567
vt 0.580142 0.030118
vt 0.694516 0.024264
vt 0.567626 0.348808
vt 0.331339 0.314287
vt 0.576389 0.019841
vt 0.575397 0.019841
vt 0.575397 0.020833
vt 0.410134 0.738847
vt 0.224008 0.893656
vt 0.214782 0.988662
vt 0.206901 0.286275
vt 0.234597 0.999335
vt 0.125532 0.091630
vt 0.916188 0.939926
vt 0.913034 0.882272
vt 0.919135 0.926614
vt 0.337750 0.919482
vt 0.181805 0.608579
vt 0.145545 0.492172
vt 0.394759 0.338639
vt 0.407275 0.019950
vt 0.405052 0.591093
vt 0.569444 0.016865
vt 0.570437 0.016865
vt 0.570437 0.015873
vt 0.022205 0.548033
vt 0.005188 0.498090
vt 0.010934 0.346505
vt 0.192498 0.018233
vt 0.191109 0.370781
vt 0.004160 0.323504
vt 0.313929 0.007611
vt 0.206401 0.006335
vt 0.335105 0.028694
vt 0.556403 0.989209
vt 0.934482 0.285813
vt 0.957904 0.359181
vt 0.000684 0.597640
vt 0.144416 0.993162
vt 0.016692 0.018709
vt 0.729270 0.999378
vt 0.049907 0.181676
vt 0.568452 0.009921
vt 0.567460 0.009921
vt 0.567460 0.010913
vt 0.376471 0.504608
vt 0.313042 0.997911
vt 0.178906 0.159683
vt 0.529437 0.014141
vt 0.730911 0.944905
vt 0.840740 0.970382
vt 0.954473 0.999267
vn 0.2977 0.0491 0.9534
vn 0.3683 0.0324 0.9291
vn 0.4729 0.0924 0.8762
vn 0.8630 0.1219 0.4903
vn 0.6830 0.0247 0.7300
vn 0.9494 0.0513 -0.3097
vn 0.6247 -0.7622 -0.1695
vn 0.6294 -0.3417 0.6979
vn 0.0053 -0.8946 0.4469
vn -0.3626 0.8161 -0.4499
vn 0.3230 0.8053 0.4971
vn 0.6717 0.6562 0.3438
vn 0.0078 -0.2521 0.9677
vn 0.8648 -0.0682 0.4975
vn -0.5235 0.8372 0.1582
vn -0.4980 0.0113 0.8671
vn -0.2471 0.0954 0.9643
vn -0.9856 0.1687 -0.0151
vn 0.9221 -0.0392 -0.3850
vn 0.5371 -0.0738 0.8403
vn 0.7159 -0.0102 0.6981
vn -0.1083 0.2815 0.9534
vn -0.9492 0.3073 0.0676
vn -0.1779 0.4421 0.8792
vn 0.7014 0.5319 -0.4745
vn 0.9935 -0.0978 -0.0580
vn 0.1614 0.0100 0.9868
vn 0.3108 -0.0025 0.9505
vn 0.6174 -0.4074 -0.6729
vn 0.1385 -0.2014 -0.9697
vn -0.9992 -0.0393 -0.0087
vn -0.3735 -0.7188 -0.5863
vn -0.7232 0.0236 -0.6903
vn 0.1419 0.1772 -0.9739
vn -0.6298 0.0049 -0.7768
vn 0.3515 0.0234 0.9359
vn -0.7735 -0.6310 0.0592
vn -0.5645 -0.2876 0.7737
vn 0.3182 -0.0498 0.9467
vn 0.2215 -0.0657 0.9729
vn -0.4530 -0.1369 0.8809
vn -0.2654 -0.1033 0.9586
vn 0.0094 0.0002 1.0000
usemtl G_KYOC_124.002
s 1
f 1/1/1 2/2/2 3/3/3
f 4/4/4 5/5/5 6/6/6
f 7/7/7 8/8/8 9/9/9
f 10/10/10 11/11/11 12/12/12
f 8/13/8 13/14/13 9/15/9
f 5/5/5 14/16/14 6/6/6
f 15/17/15 11/11/11 10/10/10
f 16/18/16 17/19/17 18/20/18
f 19/21/19 20/22/20 21/23/21
f 22/24/22 18/25/18 17/26/17
f 23/27/23 24/28/24 15/29/15
f 25/30/25 10/31/10 12/32/12
f 2/2/2 4/33/4 3/3/3
f 8/34/8 7/35/7 26/36/26
f 3/37/3 22/38/22 1/39/1
f 11/40/11 24/28/24 3/3/3
f 27/41/27 28/42/28 20/43/20
f 6/6/6 14/16/14 19/21/19
f 29/44/29 30/45/30 19/46/19
f 31/47/31 16/18/16 18/20/18
f 29/48/29 32/49/32 30/50/30
f 25/30/25 12/32/12 4/51/4
f 33/52/33 34/53/34 35/54/35
f 34/53/34 33/52/33 10/55/10
f 28/42/28 36/56/36 8/13/8
f 37/57/37 9/58/9 38/59/38
f 33/52/33 18/20/18 23/60/23
f 2/2/2 5/61/5 4/33/4
f 27/41/27 20/43/20 39/62/39
f 19/63/19 26/36/26 29/64/29
f 6/65/6 25/30/25 4/51/4
f 37/66/37 32/67/32 9/68/9
f 40/69/40 41/70/41 42/71/42
f 34/53/34 30/72/30 35/54/35
f 5/61/5 39/62/39 14/73/14
f 20/43/20 14/73/14 39/62/39
f 23/27/23 18/25/18 22/24/22
f 14/16/14 20/22/20 19/21/19
f 31/74/31 42/71/42 41/70/41
f 35/54/35 18/20/18 33/52/33
f 40/69/40 42/71/42 39/62/39
f 24/28/24 11/40/11 15/29/15
f 37/75/37 31/47/31 32/76/32
f 40/69/40 39/62/39 2/2/2
f 37/75/37 38/77/38 31/47/31
f 34/78/34 25/30/25 6/65/6
f 8/79/8 26/80/26 21/23/21
f 41/70/41 40/69/40 16/81/16
f 1/1/1 22/24/22 17/26/17
f 4/33/4 12/82/12 3/3/3
f 42/71/42 38/83/38 13/14/13
f 34/78/34 10/31/10 25/30/25
f 19/46/19 30/45/30 34/84/34
f 43/85/43 13/14/13 36/56/36
f 28/42/28 43/85/43 36/56/36
f 27/41/27 39/62/39 42/71/42
f 9/86/9 32/87/32 7/88/7
f 31/47/31 41/89/41 16/18/16
f 2/2/2 1/1/1 16/81/16
f 3/3/3 24/28/24 22/24/22
f 23/60/23 15/90/15 10/55/10
f 23/27/23 22/24/22 24/28/24
f 31/47/31 18/20/18 35/54/35
f 38/83/38 42/71/42 31/74/31
f 5/61/5 2/2/2 39/62/39
f 27/41/27 43/85/43 28/42/28
f 7/35/7 29/64/29 26/36/26
f 21/91/21 28/42/28 8/13/8
f 2/2/2 16/81/16 40/69/40
f 32/92/32 29/64/29 7/35/7
f 13/93/13 43/94/43 42/95/42
f 1/1/1 17/26/17 16/81/16
f 35/54/35 30/72/30 32/76/32
f 26/80/26 19/21/19 21/23/21
f 33/52/33 23/60/23 10/55/10
f 36/56/36 13/14/13 8/13/8
f 21/91/21 20/43/20 28/42/28
f 43/85/43 27/41/27 42/71/42
f 3/3/3 12/82/12 11/40/11
f 38/83/38 9/15/9 13/14/13
f 32/76/32 31/47/31 35/54/35
f 19/63/19 34/78/34 6/65/6
