# Blender v2.93.5 OBJ File: ''
# www.blender.org
mtllib 486_G_GYE_124.mtl
o 486_G_GYE_124
v -17.551191 -132.166504 -23.484947
v -17.491875 -60.460083 -20.147766
v -15.842047 -95.548943 -22.187111
v 33.437931 -14.759304 19.330193
v -17.062458 -42.102604 19.439926
v 0.456814 -51.207775 19.701822
v -17.816761 -99.620239 -21.528812
v 10.925473 -141.027710 21.394749
v 14.780193 -119.292793 20.547159
v -16.689447 -150.670898 21.070765
v -15.084513 89.015366 18.513363
v -15.817660 -4.473890 18.931133
v 7.831522 46.976757 18.877367
v 12.402089 -84.922035 -7.116386
v -6.317141 -58.581142 -16.515556
v 9.246028 -44.141331 -6.312851
v 26.962440 -45.296761 9.620351
v 33.575314 -40.344627 19.554869
v 34.187332 -43.268444 18.546515
v 14.334884 -90.618568 -5.736011
v -15.203272 179.448090 -20.400126
v 10.797243 180.369431 -1.630998
v 1.906053 158.495712 -8.920604
v 14.343782 -118.746277 -6.483356
v -19.383125 -104.767639 9.120246
v -19.362555 -125.086166 8.361746
v -19.551970 -119.040672 16.680534
v -12.957613 -150.689301 -24.464186
v -6.604788 -133.485718 -20.979237
v -1.604206 -150.624908 -20.151443
v 3.179597 82.918114 -7.162253
v -3.454669 79.573792 -12.931754
v -6.702473 105.246452 -15.778051
v 0.329754 -1.958104 -9.928106
v 14.708172 -32.433479 -1.732920
v 31.954065 111.486000 17.997849
v 27.812540 144.916672 18.158590
v 16.364031 106.081795 18.436132
v -17.226627 -82.174393 20.133223
v -18.710096 -91.963745 17.906940
v -15.349057 47.293938 -20.621616
v -16.730722 49.695999 -19.488842
v -15.218285 99.953857 -21.724369
v -18.551311 -135.570511 20.631493
v -19.627211 -127.427422 18.638956
v -19.596914 -150.471497 20.495918
v -16.073242 99.681808 17.706221
v -15.087118 181.552109 16.559256
v -16.392258 107.082161 16.194242
v -16.564611 30.921995 -20.092350
v -16.942787 65.730644 14.245626
v 14.922501 -150.650284 -6.161620
v -19.270937 -127.677765 -9.999016
v -18.737850 -117.878410 -21.070782
v -19.334654 -143.503784 -13.103084
v -11.808533 28.060608 -18.278784
v -18.611599 -150.365631 -23.158901
v 35.645088 -108.412300 20.512831
v 32.738323 -27.498423 16.854374
v 33.394730 11.242535 18.042631
v 32.343987 29.634302 18.834021
v 37.311100 -150.696335 21.201809
v -18.225990 -75.969772 2.015615
v -17.362814 -28.229855 -19.769806
v 25.863390 -140.961578 6.449739
v 35.877151 -126.777031 18.303387
v 31.203199 141.947937 17.032627
v 32.359100 60.556507 17.264305
v 22.981398 -119.283318 2.721954
v 26.940966 -90.310951 8.654453
v 36.447834 -108.369064 19.395163
v -17.988745 -124.140419 12.699639
v -18.828230 -102.645615 -10.833748
v -17.265087 19.773149 4.413297
v -18.144985 -36.508160 17.903809
v -16.852053 25.783245 17.119444
v 29.790981 181.150818 17.510303
v -13.402875 181.892639 17.864738
v -8.344976 181.059311 18.826092
v 7.815548 -130.672028 -12.506863
v 22.439407 -29.702866 4.944091
v 20.030069 12.424007 4.247452
v 11.497728 3.122643 -2.249801
v 30.336798 180.199417 16.534063
v 30.570007 154.309189 16.617498
v 22.476282 143.839859 9.625106
v 27.836573 -78.849861 9.791892
v -16.379019 120.733665 -20.778324
v 8.211554 55.533516 -3.155602
v 24.444607 100.924614 9.978559
v 20.867958 64.057503 5.948310
v -3.941122 142.622665 -13.408699
v -19.779028 -130.726593 5.299566
v 13.433743 181.610123 2.138102
v 28.184210 68.934471 12.404622
v -16.245182 181.043442 -14.666073
v -15.407346 181.396469 -18.901297
v 32.297523 55.505253 18.602989
v 12.235906 -140.107544 -9.567551
v 11.355872 -117.428337 -9.309904
v 3.831314 142.205154 -7.246907
v 4.978692 -68.309242 20.060585
v 21.032055 100.511742 8.160555
v -13.475180 -39.037670 -20.028156
vt 0.299120 0.013083
vt 0.499762 0.016078
vt 0.399925 0.018312
vt 0.158190 0.390753
vt 0.007621 0.308539
vt 0.059677 0.283010
vt 0.172227 0.151287
vt 0.176793 0.262367
vt 0.166044 0.061120
vt 0.089265 0.029304
vt 0.100638 0.090666
vt 0.009079 0.000653
vt 0.013449 0.702967
vt 0.011243 0.419155
vt 0.083167 0.573979
vt 0.404674 0.208208
vt 0.462194 0.286734
vt 0.409492 0.324705
vt 0.340336 0.320861
vt 0.306824 0.336676
vt 0.307454 0.327614
vt 0.397925 0.192085
vt 0.491877 0.991705
vt 0.395150 0.996023
vt 0.430226 0.927126
vt 0.399573 0.114082
vt 0.261562 0.137620
vt 0.258605 0.081297
vt 0.282847 0.098455
vt 0.490468 0.034217
vt 0.471112 0.078310
vt 0.459310 0.028893
vt 0.423771 0.695953
vt 0.449901 0.686043
vt 0.462971 0.763352
vt 0.435406 0.447037
vt 0.388724 0.357543
vt 0.158281 0.772958
vt 0.146951 0.878650
vt 0.110475 0.756156
vt 0.293493 0.203641
vt 0.293276 0.317297
vt 0.287231 0.174669
vt 0.176597 0.579795
vt 0.180402 0.586614
vt 0.174053 0.740948
vt 0.293021 0.054503
vt 0.288132 0.075426
vt 0.292389 0.012667
vt 0.294471 0.739332
vt 0.294562 0.997691
vt 0.290382 0.762258
vt 0.178220 0.530152
vt 0.282799 0.635257
vt 0.736723 0.011116
vt 0.735900 0.011116
vt 0.735900 0.011939
vt 0.205543 0.072694
vt 0.173502 0.099474
vt 0.196254 0.028852
vt 0.477971 0.534809
vt 0.493411 0.747460
vt 0.166979 0.010032
vt 0.161412 0.122647
vt 0.157672 0.316302
vt 0.313393 0.372153
vt 0.308536 0.483662
vt 0.306779 0.409277
vt 0.156495 0.522310
vt 0.164802 0.005501
vt 0.241545 0.219020
vt 0.178400 0.355287
vt 0.350679 0.055212
vt 0.306692 0.095402
vt 0.299000 0.032201
vt 0.311534 0.875705
vt 0.308839 0.782015
vt 0.310885 0.628547
vt 0.363530 0.113323
vt 0.343188 0.194476
vt 0.302880 0.145943
vt 0.003567 0.042600
vt 0.007294 0.192891
vt 0.270591 0.085787
vt 0.000533 0.001641
vt 0.203574 0.142599
vt 0.251592 0.497054
vt 0.289501 0.332488
vt 0.289520 0.515331
vt 0.154254 0.995120
vt 0.018719 0.999438
vt 0.034935 0.996879
vt 0.425015 0.081728
vt 0.358924 0.364946
vt 0.364838 0.486818
vt 0.396299 0.460499
vt 0.313379 0.995412
vt 0.313448 0.914122
vt 0.346247 0.881526
vt 0.338842 0.226435
vt 0.177586 0.805861
vt 0.404824 0.614275
vt 0.342015 0.749938
vt 0.358763 0.638996
vt 0.452356 0.877709
vt 0.249741 0.065038
vt 0.883975 0.956446
vt 0.911240 0.999503
vt 0.810550 0.953019
vt 0.329551 0.653428
vt 0.155163 0.908260
vt 0.179478 0.993191
vt 0.197754 0.998420
vt 0.184262 0.999504
vt 0.308593 0.613802
vt 0.410126 0.055075
vt 0.157298 0.600373
vt 0.411350 0.117714
vt 0.492341 0.186853
vt 0.422493 0.876514
vt 0.397959 0.027291
vt 0.381363 0.999556
vt 0.072876 0.233946
vt 0.353311 0.748744
vt 0.736723 0.009469
vt 0.735900 0.009469
vt 0.735900 0.010292
vt 0.484064 0.343200
vt 0.355578 0.006555
vt 0.166281 0.005272
vt 0.167381 0.002324
vt 0.364723 0.011912
vt 0.558932 0.002012
vt 0.735018 0.002915
vt 0.312675 0.997998
vt 0.558992 0.026069
vt 0.761545 0.016413
vt 0.809488 0.018476
vt 0.295948 0.706593
vt 0.297845 0.998060
vt 0.317029 0.884317
vt 0.489046 0.997341
vt 0.497716 0.088078
vt 0.737546 0.010292
vt 0.738370 0.010292
vt 0.738370 0.009469
vt 0.363471 0.008842
vt 0.627322 0.009762
vt 0.624676 0.011776
vt 0.734920 0.006844
vt 0.163245 0.124005
vt 0.490425 0.591165
vt 0.498783 0.040632
vt 0.156797 0.868927
vt 0.158541 0.467970
vt 0.465036 0.003359
vt 0.999127 0.965378
vt 0.736723 0.007822
vt 0.735900 0.007822
vt 0.735900 0.008646
vt 0.737546 0.008646
vt 0.738370 0.008646
vt 0.738370 0.007822
vn -0.4006 0.0430 -0.9152
vn -0.8496 0.0220 -0.5269
vn -0.0336 0.0285 -0.9990
vn 0.5696 0.0143 0.8218
vn -0.3049 0.0150 0.9523
vn 0.0019 0.0170 0.9999
vn -0.9623 0.0354 -0.2698
vn -0.0031 0.0175 0.9998
vn -0.0049 0.0235 0.9997
vn -0.0607 -0.5948 0.8016
vn -0.3525 0.0096 0.9358
vn 0.0648 0.0063 0.9979
vn 0.0016 0.0053 1.0000
vn 0.6222 0.0408 -0.7818
vn 0.4776 0.0426 -0.8776
vn 0.5389 0.0487 -0.8410
vn 0.7551 0.0619 -0.6527
vn 0.9544 0.1027 0.2803
vn 0.9699 0.1150 -0.2149
vn 0.7162 0.0251 -0.6975
vn 0.0212 0.2963 -0.9549
vn 0.6108 0.3332 -0.7182
vn 0.6050 0.0106 -0.7961
vn 0.7063 0.0164 -0.7077
vn -0.9998 0.0202 0.0073
vn -0.9910 0.0344 0.1290
vn -0.9934 -0.1098 0.0320
vn 0.0521 -0.7966 -0.6022
vn 0.3825 0.0681 -0.9214
vn 0.5136 -0.2195 -0.8295
vn 0.6169 0.0390 -0.7861
vn 0.6397 -0.0148 -0.7685
vn 0.6116 -0.0033 -0.7911
vn 0.5636 0.0281 -0.8256
vn 0.5963 0.0493 -0.8012
vn 0.6584 0.0189 0.7524
vn 0.5032 0.1035 0.8579
vn 0.0140 0.0033 0.9999
vn -0.3315 0.0158 0.9433
vn -0.9659 0.0276 0.2575
vn -0.1097 -0.0045 -0.9940
vn -0.9111 0.0013 -0.4122
vn 0.0615 -0.0028 -0.9981
vn -0.4999 0.0279 0.8656
vn -0.9789 0.1131 0.1704
vn -0.8472 -0.4203 0.3251
vn -0.8368 0.0110 0.5474
vn -0.8158 0.5038 0.2840
vn -0.9961 0.0095 0.0878
vn -0.8380 0.0094 -0.5456
vn -0.9981 0.0049 0.0622
vn 0.5033 -0.7232 -0.4730
vn -0.9994 0.0153 -0.0322
vn -0.9775 0.0230 -0.2095
vn -0.9993 -0.0135 -0.0351
vn 0.5845 -0.0065 -0.8114
vn -0.8419 -0.2842 -0.4588
vn 0.3564 0.0261 0.9340
vn 0.8764 -0.0071 -0.4815
vn 0.9878 0.0154 -0.1552
vn 0.3424 0.0121 0.9395
vn 0.8377 -0.2597 0.4804
vn -0.9994 0.0197 -0.0297
vn -0.9494 0.0097 -0.3140
vn 0.7626 -0.0174 -0.6466
vn 0.8076 -0.0061 -0.5898
vn 0.8747 0.1921 -0.4450
vn 0.9238 0.0077 -0.3828
vn 0.7539 0.0101 -0.6569
vn 0.7569 0.0176 -0.6533
vn 0.9492 0.0238 -0.3139
vn -0.9974 0.0104 0.0713
vn -0.9982 0.0423 -0.0421
vn -0.9999 0.0108 0.0019
vn -0.9842 0.0145 0.1763
vn -0.9678 0.0113 0.2515
vn 0.5625 0.7101 0.4236
vn -0.2848 0.7341 0.6165
vn -0.0231 0.1774 0.9839
vn 0.5456 0.0597 -0.8359
vn 0.6947 0.0271 -0.7187
vn 0.6750 0.0151 -0.7377
vn 0.5897 0.0306 -0.8070
vn 0.8469 0.2408 -0.4742
vn 0.9933 -0.1104 0.0352
vn 0.6804 0.0599 -0.7304
vn 0.7605 0.0131 -0.6493
vn -0.9209 0.0075 -0.3897
vn 0.6434 -0.1132 -0.7571
vn 0.5841 0.0627 -0.8093
vn 0.7098 -0.3014 -0.6367
vn 0.5895 0.0079 -0.8078
vn -0.9998 0.0138 0.0130
vn 0.3084 0.8694 -0.3861
vn 0.7130 -0.1124 -0.6921
vn -0.9716 0.2243 -0.0755
vn -0.2864 0.9296 -0.2319
vn 0.5680 0.0133 0.8229
vn 0.6796 0.0027 -0.7335
vn 0.5853 0.0440 -0.8096
vn 0.6468 -0.0049 -0.7626
vn 0.0012 0.0181 0.9998
vn 0.5627 0.0838 -0.8224
vn 0.4211 0.0162 -0.9069
usemtl G_GYE_124
s 1
f 1/1/1 2/2/2 3/3/3
f 4/4/4 5/5/5 6/6/6
f 7/7/7 2/8/2 1/9/1
f 8/10/8 9/11/9 10/12/10
f 11/13/11 12/14/12 13/15/13
f 14/16/14 15/17/15 16/18/16
f 17/19/17 18/20/18 19/21/19
f 20/22/20 14/16/14 17/19/17
f 21/23/21 22/24/22 23/25/23
f 20/22/20 24/26/24 14/16/14
f 25/27/25 26/28/26 27/29/27
f 28/30/28 29/31/29 30/32/30
f 31/33/31 32/34/32 33/35/33
f 16/18/16 34/36/34 35/37/35
f 36/38/36 37/39/37 38/40/38
f 39/41/39 5/42/5 40/43/40
f 40/43/40 25/27/25 27/29/27
f 41/44/41 42/45/42 43/46/43
f 44/47/44 45/48/45 46/49/46
f 47/50/47 48/51/48 49/52/49
f 44/47/44 40/43/40 45/48/45
f 42/45/42 50/53/50 51/54/51
f 52/55/52 28/56/28 30/57/30
f 53/58/53 54/59/54 55/60/55
f 33/35/33 56/61/56 43/62/43
f 57/63/57 54/59/54 1/9/1
f 58/64/58 18/65/18 6/6/6
f 59/66/59 60/67/60 4/68/4
f 61/69/61 12/14/12 4/4/4
f 9/11/9 62/70/62 58/64/58
f 63/71/63 64/72/64 2/8/2
f 65/73/65 66/74/66 62/75/62
f 67/76/67 36/77/36 68/78/68
f 69/79/69 70/80/70 71/81/71
f 44/82/44 9/11/9 39/83/39
f 69/79/69 71/81/71 66/74/66
f 72/84/72 27/29/27 26/28/26
f 44/82/44 46/85/46 10/12/10
f 5/5/5 12/14/12 11/13/11
f 73/86/73 63/71/63 7/7/7
f 74/87/74 75/88/75 76/89/76
f 77/90/77 78/91/78 79/92/79
f 46/49/46 55/60/55 57/63/57
f 80/93/80 30/32/30 29/31/29
f 74/87/74 50/53/50 75/88/75
f 81/94/81 59/66/59 17/19/17
f 82/95/82 81/94/81 83/96/83
f 84/97/84 85/98/85 86/99/86
f 84/97/84 86/99/86 22/24/22
f 25/27/25 40/43/40 73/86/73
f 59/66/59 18/20/18 17/19/17
f 45/48/45 40/43/40 27/29/27
f 75/88/75 40/43/40 5/42/5
f 87/100/87 19/21/19 71/81/71
f 34/36/34 83/96/83 35/37/35
f 17/19/17 87/100/87 20/22/20
f 49/52/49 88/101/88 42/45/42
f 11/13/11 79/92/79 78/91/78
f 70/80/70 87/100/87 71/81/71
f 89/102/89 90/103/90 91/104/91
f 92/105/92 33/35/33 43/62/43
f 26/28/26 25/27/25 93/106/93
f 94/107/94 78/108/78 77/109/77
f 91/104/91 90/103/90 95/110/95
f 89/102/89 34/36/34 56/61/56
f 54/59/54 73/86/73 7/7/7
f 20/22/20 69/79/69 24/26/24
f 85/111/85 77/90/77 37/39/37
f 74/87/74 76/89/76 51/54/51
f 65/73/65 24/26/24 69/79/69
f 51/54/51 50/53/50 74/87/74
f 21/112/21 96/113/96 97/114/97
f 63/71/63 75/88/75 64/72/64
f 36/77/36 98/115/98 68/78/68
f 53/58/53 93/106/93 25/27/25
f 65/73/65 99/116/99 24/26/24
f 81/94/81 35/37/35 83/96/83
f 13/15/13 98/117/98 38/40/38
f 69/79/69 66/74/66 65/73/65
f 100/118/100 80/93/80 29/31/29
f 80/93/80 99/116/99 30/32/30
f 3/119/3 15/17/15 29/31/29
f 22/24/22 86/99/86 101/120/101
f 99/116/99 52/121/52 30/32/30
f 94/122/94 22/24/22 21/23/21
f 39/83/39 102/123/102 5/5/5
f 70/80/70 69/79/69 20/22/20
f 46/49/46 45/48/45 93/106/93
f 58/64/58 39/83/39 9/11/9
f 49/52/49 51/54/51 47/50/47
f 96/113/96 88/101/88 49/52/49
f 82/95/82 60/67/60 81/94/81
f 83/96/83 95/110/95 82/95/82
f 68/78/68 82/95/82 95/110/95
f 103/124/103 31/33/31 101/120/101
f 73/86/73 40/43/40 63/71/63
f 49/52/49 48/51/48 96/113/96
f 52/125/52 10/126/10 28/127/28
f 13/15/13 12/14/12 61/69/61
f 86/99/86 90/103/90 103/124/103
f 24/26/24 100/118/100 14/16/14
f 15/17/15 104/128/104 16/18/16
f 43/62/43 21/23/21 92/105/92
f 101/120/101 33/35/33 92/105/92
f 71/81/71 62/75/62 66/74/66
f 19/129/19 58/130/58 71/131/71
f 43/46/43 42/45/42 88/101/88
f 3/132/3 64/133/64 50/134/50
f 93/106/93 53/58/53 55/60/55
f 84/97/84 22/24/22 77/135/77
f 9/11/9 8/10/8 62/70/62
f 104/136/104 50/137/50 41/138/41
f 75/88/75 63/71/63 40/43/40
f 47/50/47 51/54/51 76/89/76
f 95/110/95 83/96/83 89/102/89
f 12/14/12 5/5/5 4/4/4
f 11/139/11 75/88/75 5/42/5
f 47/50/47 11/139/11 78/140/78
f 22/24/22 101/120/101 23/25/23
f 77/135/77 85/98/85 84/97/84
f 37/141/37 86/99/86 85/98/85
f 68/78/68 60/67/60 82/95/82
f 33/35/33 101/120/101 31/33/31
f 11/139/11 47/50/47 76/89/76
f 16/18/16 104/128/104 34/36/34
f 15/17/15 14/16/14 100/118/100
f 94/122/94 21/23/21 97/142/97
f 56/61/56 33/35/33 32/34/32
f 22/24/22 94/122/94 77/135/77
f 1/143/1 3/119/3 29/31/29
f 35/37/35 81/94/81 14/16/14
f 52/144/52 62/145/62 10/146/10
f 48/51/48 97/114/97 96/113/96
f 58/130/58 19/129/19 18/147/18
f 48/148/48 78/149/78 97/150/97
f 34/36/34 89/102/89 83/96/83
f 41/44/41 50/53/50 42/45/42
f 56/61/56 34/36/34 104/128/104
f 54/59/54 25/27/25 73/86/73
f 64/72/64 75/88/75 50/53/50
f 31/33/31 103/124/103 90/103/90
f 14/16/14 81/94/81 17/19/17
f 51/54/51 49/52/49 42/45/42
f 26/28/26 45/48/45 72/84/72
f 55/60/55 46/49/46 93/106/93
f 58/64/58 102/123/102 39/83/39
f 13/15/13 61/69/61 98/117/98
f 58/64/58 62/70/62 71/151/71
f 58/64/58 6/6/6 102/123/102
f 98/117/98 36/38/36 38/40/38
f 87/100/87 70/80/70 20/22/20
f 52/121/52 99/116/99 65/73/65
f 9/11/9 44/82/44 10/12/10
f 95/110/95 67/76/67 68/78/68
f 99/116/99 80/93/80 100/118/100
f 52/121/52 65/73/65 62/75/62
f 4/68/4 18/20/18 59/66/59
f 53/58/53 25/27/25 54/59/54
f 86/99/86 67/76/67 90/103/90
f 37/39/37 79/92/79 38/40/38
f 104/128/104 15/17/15 3/119/3
f 1/9/1 54/59/54 7/7/7
f 41/152/41 56/61/56 104/128/104
f 1/143/1 29/31/29 28/30/28
f 44/47/44 39/41/39 40/43/40
f 2/8/2 7/7/7 63/71/63
f 26/28/26 93/106/93 45/48/45
f 67/76/67 86/99/86 37/141/37
f 103/124/103 101/120/101 86/99/86
f 23/25/23 92/105/92 21/23/21
f 100/118/100 24/26/24 99/116/99
f 31/33/31 56/61/56 32/34/32
f 1/143/1 28/30/28 57/153/57
f 79/92/79 37/39/37 77/90/77
f 10/12/10 62/70/62 8/10/8
f 104/136/104 3/3/3 50/137/50
f 81/94/81 60/67/60 59/66/59
f 18/65/18 4/4/4 6/6/6
f 67/76/67 95/110/95 90/103/90
f 48/51/48 47/50/47 78/140/78
f 90/103/90 89/102/89 31/33/31
f 89/102/89 56/61/56 31/33/31
f 37/39/37 36/38/36 67/154/67
f 6/6/6 5/5/5 102/123/102
f 21/112/21 43/46/43 88/101/88
f 21/112/21 88/101/88 96/113/96
f 75/88/75 11/139/11 76/89/76
f 98/115/98 60/67/60 68/78/68
f 89/102/89 91/104/91 95/110/95
f 13/15/13 38/40/38 11/13/11
f 61/69/61 4/4/4 60/155/60
f 56/61/56 41/152/41 43/62/43
f 64/133/64 3/132/3 2/156/2
f 14/16/14 16/18/16 35/37/35
f 94/107/94 97/157/97 78/108/78
f 27/29/27 72/84/72 45/48/45
f 10/158/10 46/159/46 28/160/28
f 19/21/19 87/100/87 17/19/17
f 46/161/46 57/162/57 28/163/28
f 98/117/98 61/69/61 60/155/60
f 79/92/79 11/13/11 38/40/38
f 54/59/54 57/63/57 55/60/55
f 29/31/29 15/17/15 100/118/100
f 23/25/23 101/120/101 92/105/92
