# Blender v2.93.5 OBJ File: ''
# www.blender.org
mtllib 484_GP_HGS_124.mtl
o 484_GP_HGS_124
v 18.108761 -157.824524 7.499922
v -2.092417 -161.661362 9.214829
v 32.222237 -156.835388 -6.103810
v -5.096937 -130.364090 9.815961
v 7.180094 -97.031471 11.769510
v -21.547302 -117.306389 9.757880
v -3.462484 -22.371006 10.381280
v 4.440634 -65.248398 12.333152
v -0.986003 -17.198290 12.763721
v -2.021689 82.529709 13.839130
v -17.681162 87.433121 15.790276
v 2.555526 40.445072 12.470813
v -4.384101 -115.457993 -26.841497
v -22.249260 -116.492653 6.321466
v -22.156254 -71.110886 6.423629
v -5.562612 -95.923836 9.815187
v -7.010963 -68.981941 8.143834
v -4.902083 123.805946 -19.805407
v 14.148576 123.775467 7.965004
v 25.559069 123.649445 -1.823471
v -4.289299 106.657913 14.497334
v -7.346961 87.235176 11.087035
v 11.065240 -155.394409 10.385508
v -21.932596 123.011292 5.742400
v -21.305595 94.177231 14.459262
v -19.846817 123.404961 9.311086
v -24.736193 65.608627 11.467388
v -19.726751 38.600395 13.463056
v -8.332756 123.735741 14.561266
v 30.092743 22.285746 -1.414328
v 14.351716 74.107368 7.713739
v 23.035913 -12.076555 5.496963
v -5.408244 -65.892616 11.301972
v 26.419664 68.013123 -0.076130
v 15.355386 -61.756992 9.386346
v 11.944273 -12.656619 10.299872
v -2.344038 -158.142334 -26.784012
v 33.832569 -91.621498 -3.419999
v 33.746407 -104.526131 -0.599202
v 24.682796 123.413506 1.807963
v -18.165117 -25.249220 12.019000
v -16.239929 -61.454948 10.586858
v 33.641384 -150.937973 -0.839046
v -22.776699 -154.991455 15.100836
v -13.481164 -162.023651 10.587943
v -26.047264 -157.441330 12.448465
v -3.509718 16.830530 9.171364
v -7.897466 121.800339 -20.844217
v -7.035015 -13.165321 12.365593
vt 0.378162 0.017811
vt 0.379195 0.017811
vt 0.379195 0.016779
vt 0.240839 0.107873
vt 0.282692 0.209199
vt 0.184128 0.149998
vt 0.244511 0.459808
vt 0.272920 0.312321
vt 0.252967 0.474916
vt 0.247379 0.837264
vt 0.186987 0.855237
vt 0.265388 0.680490
vt 0.743565 0.372157
vt 0.874177 0.371634
vt 0.874672 0.518121
vt 0.180897 0.302725
vt 0.238574 0.216622
vt 0.233268 0.306445
vt 0.637110 0.136973
vt 0.698427 0.176741
vt 0.742177 0.163913
vt 0.238076 0.930492
vt 0.227580 0.856327
vt 0.320013 0.025807
vt 0.296015 0.028509
vt 0.251640 0.012782
vt 0.172174 0.995644
vt 0.173222 0.881709
vt 0.178948 0.996889
vt 0.898561 0.999301
vt 0.916571 0.527557
vt 0.918016 0.898216
vt 0.516579 0.149197
vt 0.508384 0.294322
vt 0.507889 0.147834
vt 0.310020 0.999255
vt 0.221941 0.997962
vt 0.897228 0.999324
vt 0.366804 0.625368
vt 0.310128 0.808090
vt 0.340387 0.499486
vt 0.238238 0.312171
vt 0.355120 0.789190
vt 0.311863 0.327295
vt 0.300125 0.492836
vt 0.378162 0.013681
vt 0.379195 0.013681
vt 0.379195 0.012648
vt 0.535761 0.052030
vt 0.726927 0.052138
vt 0.564936 0.114779
vt 0.566908 0.230994
vt 0.555900 0.617230
vt 0.563136 0.185573
vt 0.350549 0.998641
vt 0.191372 0.448690
vt 0.200062 0.328419
vt 0.550445 0.123718
vt 0.541741 0.116952
vt 0.696942 0.122930
vt 0.543283 0.999351
vt 0.535564 0.998042
vt 0.542715 0.784801
vt 0.374601 0.202621
vt 0.372372 0.060237
vt 0.180105 0.023964
vt 0.182342 0.673384
vt 0.000740 0.218289
vt 0.158742 0.142375
vt 0.149701 0.999242
vt 0.378162 0.011616
vt 0.379195 0.011616
vt 0.379195 0.010583
vt 0.243849 0.598014
vt 0.161512 0.991442
vt 0.532135 0.020696
vt 0.742385 0.178356
vt 0.697768 0.178872
vt 0.689622 0.183856
vt 0.231039 0.489579
vt 0.013565 0.009000
vt 0.152095 0.006700
vt 0.169910 0.021672
vt 0.507457 0.997212
vt 0.388265 0.999357
vt 0.390479 0.991041
vt 0.212996 0.010132
vt 0.162887 0.774468
vt 0.535750 0.183865
vt 0.382292 0.007486
vt 0.383325 0.007486
vt 0.383325 0.006453
vt 0.377277 0.148357
vt 0.376307 0.019279
vt 0.530940 0.775524
vt 0.618109 0.183852
vt 0.571409 0.168951
vt 0.012805 0.997765
vt 0.742366 0.116405
vt 0.533873 0.885930
vt 0.002672 0.613448
vt 0.578417 0.175153
vn 0.4193 -0.3453 0.8396
vn 0.1486 -0.7234 0.6742
vn 0.7934 -0.5280 -0.3029
vn 0.0377 0.0090 0.9992
vn 0.0283 0.0048 0.9996
vn -0.4785 0.0882 0.8736
vn -0.1350 -0.0967 0.9861
vn -0.0571 -0.1225 0.9908
vn -0.1572 -0.0322 0.9870
vn 0.1743 0.1165 0.9778
vn 0.1037 0.2193 0.9701
vn 0.1607 -0.0364 0.9863
vn -0.3936 0.0112 -0.9192
vn -0.9896 0.0370 -0.1391
vn -0.6674 -0.1402 0.7314
vn -0.1268 0.0706 0.9894
vn -0.1318 -0.2985 0.9453
vn 0.1647 0.7872 -0.5943
vn 0.3539 0.5139 0.7814
vn 0.8264 0.5577 -0.0781
vn -0.0535 -0.0209 0.9984
vn 0.0947 0.2409 0.9659
vn 0.1027 -0.1474 0.9837
vn -0.7228 0.6910 -0.0140
vn -0.3913 0.0870 0.9161
vn -0.4758 0.4143 0.7759
vn -0.9912 0.0008 0.1322
vn -0.2247 -0.0394 0.9736
vn -0.0445 0.8611 0.5065
vn 0.8373 0.0353 0.5457
vn 0.4594 0.0122 0.8881
vn 0.4779 0.0190 0.8782
vn 0.0146 -0.2732 0.9618
vn 0.6798 0.0126 0.7333
vn 0.3642 -0.0002 0.9313
vn 0.1785 0.0457 0.9829
vn -0.1702 -0.8420 -0.5119
vn 0.8285 0.0226 -0.5595
vn 0.8386 0.0029 0.5447
vn 0.7090 0.4555 0.5384
vn -0.2659 -0.0379 0.9633
vn -0.2637 -0.1360 0.9550
vn 0.8353 -0.2609 0.4840
vn -0.0685 -0.1806 0.9812
vn -0.1051 -0.9050 0.4123
vn -0.9377 -0.3248 0.1233
vn 0.0696 -0.0197 0.9974
vn -0.6367 0.2857 -0.7162
vn 0.1099 0.0078 0.9939
usemtl GP_HGS_124
s 1
f 1/1/1 2/2/2 3/3/3
f 4/4/4 5/5/5 6/6/6
f 7/7/7 8/8/8 9/9/9
f 10/10/10 11/11/11 12/12/12
f 13/13/13 14/14/14 15/15/15
f 15/16/15 16/17/16 17/18/17
f 18/19/18 19/20/19 20/21/20
f 21/22/21 22/23/22 10/10/10
f 1/24/1 23/25/23 2/26/2
f 24/27/24 25/28/25 26/29/26
f 27/30/27 15/31/15 28/32/28
f 6/33/6 15/34/15 14/35/14
f 16/17/16 5/5/5 17/18/17
f 21/22/21 19/36/19 29/37/29
f 27/38/27 13/13/13 15/15/15
f 30/39/30 31/40/31 32/41/32
f 22/23/22 25/28/25 11/11/11
f 33/42/33 8/8/8 7/7/7
f 31/40/31 30/39/30 34/43/34
f 8/8/8 35/44/35 36/45/36
f 3/46/3 2/47/2 37/48/37
f 31/49/31 19/50/19 10/51/10
f 38/52/38 30/53/30 39/54/39
f 40/55/40 19/36/19 34/43/34
f 33/42/33 15/16/15 17/18/17
f 36/45/36 35/44/35 32/41/32
f 41/56/41 42/57/42 33/42/33
f 12/12/12 32/41/32 31/40/31
f 43/58/43 3/59/3 39/60/39
f 15/16/15 42/57/42 41/56/41
f 20/61/20 40/62/40 34/63/34
f 39/64/39 1/24/1 43/65/43
f 6/6/6 44/66/44 4/4/4
f 36/45/36 9/9/9 8/8/8
f 5/5/5 16/17/16 6/6/6
f 15/16/15 41/56/41 28/67/28
f 2/26/2 4/4/4 44/66/44
f 38/68/38 13/69/13 18/70/18
f 45/71/45 46/72/46 37/73/37
f 19/36/19 31/40/31 34/43/34
f 10/10/10 12/12/12 31/40/31
f 12/12/12 36/45/36 32/41/32
f 39/64/39 35/44/35 1/24/1
f 28/67/28 47/74/47 12/12/12
f 18/70/18 13/69/13 48/75/48
f 35/44/35 5/5/5 1/24/1
f 6/33/6 14/35/14 46/76/46
f 17/18/17 5/5/5 8/8/8
f 35/44/35 8/8/8 5/5/5
f 19/77/19 40/78/40 20/79/20
f 29/37/29 26/29/26 21/22/21
f 49/80/49 41/56/41 33/42/33
f 49/80/49 9/9/9 36/45/36
f 32/41/32 35/44/35 39/64/39
f 20/61/20 34/63/34 30/53/30
f 22/23/22 21/22/21 25/28/25
f 49/80/49 7/7/7 9/9/9
f 3/81/3 37/82/37 13/69/13
f 6/6/6 46/83/46 44/66/44
f 24/84/24 18/85/18 48/86/48
f 15/16/15 33/42/33 42/57/42
f 45/87/45 2/26/2 44/66/44
f 47/74/47 49/80/49 36/45/36
f 49/80/49 33/42/33 7/7/7
f 44/66/44 46/83/46 45/87/45
f 12/12/12 47/74/47 36/45/36
f 25/28/25 21/22/21 26/29/26
f 28/67/28 25/28/25 27/88/27
f 3/59/3 43/58/43 1/89/1
f 37/90/37 2/91/2 45/92/45
f 25/28/25 28/67/28 11/11/11
f 13/93/13 37/94/37 46/76/46
f 11/11/11 28/67/28 12/12/12
f 46/76/46 14/35/14 13/93/13
f 17/18/17 8/8/8 33/42/33
f 48/86/48 13/93/13 27/95/27
f 15/16/15 6/6/6 16/17/16
f 21/22/21 10/10/10 19/36/19
f 11/11/11 10/10/10 22/23/22
f 49/80/49 47/74/47 28/67/28
f 18/19/18 29/96/29 19/20/19
f 24/97/24 29/96/29 18/19/18
f 48/86/48 27/95/27 24/84/24
f 20/98/20 38/68/38 18/70/18
f 4/4/4 2/26/2 23/25/23
f 13/69/13 38/68/38 3/81/3
f 30/39/30 32/41/32 39/64/39
f 28/67/28 41/56/41 49/80/49
f 38/99/38 39/60/39 3/59/3
f 1/24/1 5/5/5 23/25/23
f 23/25/23 5/5/5 4/4/4
f 27/95/27 25/100/25 24/84/24
f 38/68/38 20/98/20 30/101/30
f 29/96/29 24/97/24 26/102/26
