# Blender v2.93.5 OBJ File: ''
# www.blender.org
mtllib 489_G_GSRIM124.mtl
o 489_G_GSRIM124
v -7.117225 -42.167156 6.244926
v 0.708928 -42.204041 -6.536139
v 11.524762 -41.874939 8.164309
v 6.293474 -22.828007 7.323674
v -3.594673 -29.422953 7.465704
v 8.887515 -30.529428 9.480965
v 11.479439 -32.000214 9.538124
v 10.438690 -23.381176 8.376595
v 9.850784 50.018829 0.999953
v 1.086903 50.253208 -8.306782
v 6.010458 50.145756 1.915503
v 12.320632 -30.371752 8.657918
v 11.676368 -22.914198 7.020723
v -6.893066 50.286392 -1.524225
v -8.013622 18.394953 -1.171941
v -2.702545 38.272057 0.447913
v 4.267989 -10.735336 7.808774
v -0.254640 -18.674877 6.400055
v 9.952723 -17.194208 7.809560
v 1.244235 5.940084 -8.073050
v 2.433114 39.966541 -9.021127
v -12.974201 -41.757160 2.631783
v -12.381263 -42.338619 2.659574
v -12.949414 -41.347260 3.799517
v 8.945515 3.820009 6.212813
v 11.661859 3.053118 5.394581
v 10.280289 27.879478 2.310159
v -6.667010 50.162346 -2.506871
v 1.910582 -8.534824 -7.397484
v -10.709976 -9.309877 2.463639
v -10.518073 -4.381235 0.919644
v -4.136994 -13.458091 6.195989
v -6.861896 -3.605478 3.709163
v 9.827897 49.030315 1.984767
v -1.141669 -42.131084 7.809483
v -12.759079 -28.732212 2.615327
v 3.019455 50.124290 -8.475550
v 7.587666 25.853743 3.010924
v -0.175848 19.732456 2.223728
v -5.214360 -21.718887 6.477798
v 0.256413 -41.824730 -6.740407
v 1.060296 -41.867630 -6.734646
v 0.339856 -4.001792 6.641664
v -4.748200 11.587620 1.588772
v 0.547816 8.616755 4.223525
v 5.446948 9.782485 4.742134
vt 0.211286 0.061024
vt 0.211286 0.060149
vt 0.210411 0.060149
vt 0.610021 0.254686
vt 0.510492 0.190161
vt 0.636696 0.173047
vt 0.662407 0.159006
vt 0.652440 0.246032
vt 0.808102 0.226457
vt 0.768988 0.267063
vt 0.769028 0.231331
vt 0.670076 0.178099
vt 0.663287 0.255301
vt 0.659142 0.071499
vt 0.480572 0.999350
vt 0.467657 0.675565
vt 0.522904 0.875057
vt 0.592033 0.370720
vt 0.544491 0.297305
vt 0.648188 0.307798
vt 0.015847 0.524925
vt 0.018445 0.999486
vt 0.001536 0.885883
vt 0.671309 0.977479
vt 0.673500 0.974438
vt 0.682893 0.979798
vt 0.640471 0.519035
vt 0.666785 0.512992
vt 0.654467 0.766732
vt 0.861183 0.873720
vt 0.858586 0.399159
vt 0.966552 0.871269
vt 0.857239 0.999514
vt 0.707802 0.870554
vt 0.835543 0.495980
vt 0.210411 0.054899
vt 0.210411 0.055774
vt 0.211286 0.055774
vt 0.174518 0.010210
vt 0.445868 0.006000
vt 0.224296 0.016196
vt 0.505942 0.348309
vt 0.478650 0.450922
vt 0.439964 0.398514
vt 0.653942 0.986180
vt 0.614783 0.998539
vt 0.533844 0.069005
vt 0.000660 0.027490
vt 0.125258 0.026729
vt 0.364888 0.050431
vt 0.786306 0.263499
vt 0.627560 0.745876
vt 0.547414 0.684993
vt 0.494583 0.267380
vt 0.029024 0.056065
vt 0.026574 0.054430
vt 0.191014 0.055560
vt 0.769675 0.991152
vt 0.778738 0.993981
vt 0.671422 0.999515
vt 0.416075 0.886434
vt 0.409954 0.998651
vt 0.282872 0.999412
vt 0.013680 0.380569
vt 0.022601 0.057807
vt 0.552332 0.440190
vt 0.653221 0.995844
vt 0.858525 0.999350
vt 0.900856 0.875057
vt 0.992736 0.998539
vt 0.500367 0.604557
vt 0.168073 0.419787
vt 0.138432 0.653539
vt 0.387034 0.065423
vt 0.198300 0.172773
vt 0.206784 0.065337
vt 0.274119 0.988000
vt 0.266638 0.757474
vt 0.185971 0.051760
vt 0.000844 0.025458
vt 0.417337 0.092123
vt 0.419465 0.213696
vt 0.123814 0.997035
vt 0.131729 0.997706
vt 0.191775 0.180157
vt 0.196899 0.063674
vt 0.554549 0.570725
vt 0.604671 0.581425
vt 0.671315 0.612181
vt 0.828198 0.178503
vt 0.474400 0.074771
vt 0.394380 0.382900
vt 0.230152 0.499101
vt 0.387103 0.064043
vt 0.201662 0.058399
vt 0.201662 0.059274
vt 0.202537 0.059274
vt 0.724746 0.993814
vt 0.215599 0.243138
vt 0.000553 0.997356
vt 0.671378 0.261816
vn -0.2568 -0.7272 0.6366
vn -0.0636 -0.8782 -0.4740
vn 0.5028 -0.7708 0.3912
vn -0.1502 0.0822 0.9852
vn -0.1833 0.0776 0.9800
vn -0.0981 0.0502 0.9939
vn 0.4167 0.0718 0.9062
vn 0.2262 0.1570 0.9614
vn 0.7307 0.6726 -0.1166
vn -0.2383 0.7930 -0.5607
vn -0.0065 0.5270 0.8499
vn 0.9934 0.0217 0.1126
vn 0.8973 0.1082 0.4279
vn -0.5517 0.6763 0.4881
vn -0.8630 0.1174 0.4913
vn -0.2799 0.0460 0.9589
vn -0.0380 0.0143 0.9992
vn -0.0947 0.0235 0.9952
vn 0.2372 0.0649 0.9693
vn -0.3175 -0.0174 -0.9481
vn 0.4109 -0.0091 -0.9116
vn -0.7671 -0.3903 -0.5091
vn -0.4412 -0.8970 0.0281
vn -0.7092 -0.3269 0.6246
vn 0.0619 0.1265 0.9900
vn 0.8839 0.0497 0.4650
vn 0.7837 0.0780 0.6162
vn -0.7206 0.3123 -0.6191
vn 0.6319 -0.0319 -0.7744
vn -0.6851 0.1163 0.7191
vn -0.8552 0.0450 -0.5163
vn -0.2761 0.0552 0.9595
vn -0.4152 0.1509 0.8971
vn 0.5280 0.3273 0.7837
vn -0.1328 -0.3657 0.9212
vn -0.9475 0.0720 0.3114
vn 0.3810 0.5008 -0.7772
vn -0.0327 0.0759 0.9966
vn -0.2853 0.1189 0.9510
vn -0.3397 0.0642 0.9383
vn -0.3505 -0.2838 -0.8925
vn 0.5883 -0.2092 -0.7812
vn -0.2330 0.1493 0.9609
vn -0.3797 0.1688 0.9096
vn -0.2572 0.1703 0.9512
vn -0.0904 0.1526 0.9841
usemtl G_GSRIM124
s 1
f 1/1/1 2/2/2 3/3/3
f 4/4/4 5/5/5 6/6/6
f 6/6/6 7/7/7 8/8/8
f 9/9/9 10/10/10 11/11/11
f 7/7/7 12/12/12 13/13/13
f 7/7/7 3/14/3 12/12/12
f 14/15/14 15/16/15 16/17/16
f 4/4/4 17/18/17 18/19/18
f 4/4/4 8/8/8 19/20/19
f 20/21/20 10/22/10 21/23/21
f 22/24/22 23/25/23 24/26/24
f 25/27/25 26/28/26 27/29/27
f 10/30/10 20/31/20 28/32/28
f 21/33/21 27/34/27 29/35/29
f 1/36/1 23/37/23 2/38/2
f 30/39/30 15/40/15 31/41/31
f 32/42/32 33/43/33 30/44/30
f 34/45/34 11/46/11 27/29/27
f 6/6/6 5/5/5 35/47/35
f 22/48/22 36/49/36 31/50/31
f 37/51/37 10/10/10 9/9/9
f 13/13/13 19/20/19 8/8/8
f 38/52/38 16/17/16 39/53/39
f 18/19/18 40/54/40 5/5/5
f 41/55/41 2/56/2 22/57/22
f 28/58/28 14/59/14 10/60/10
f 21/61/21 37/62/37 9/63/9
f 20/21/20 29/64/29 42/65/42
f 16/17/16 15/16/15 39/53/39
f 3/14/3 6/6/6 35/47/35
f 32/42/32 17/18/17 43/66/43
f 34/45/34 9/67/9 11/46/11
f 13/13/13 8/8/8 7/7/7
f 14/68/14 16/69/16 11/70/11
f 19/20/19 17/18/17 4/4/4
f 20/21/20 21/23/21 29/64/29
f 15/16/15 33/43/33 44/71/44
f 4/4/4 18/19/18 5/5/5
f 41/55/41 42/65/42 2/56/2
f 38/52/38 11/46/11 16/17/16
f 19/20/19 26/28/26 17/18/17
f 31/72/31 15/73/15 20/21/20
f 42/74/42 12/75/12 3/76/3
f 9/63/9 34/77/34 27/78/27
f 15/16/15 30/44/30 33/43/33
f 22/57/22 2/56/2 23/79/23
f 21/61/21 9/63/9 27/78/27
f 31/41/31 36/80/36 30/39/30
f 24/81/24 40/54/40 36/82/36
f 28/83/28 15/73/15 14/84/14
f 36/85/36 22/57/22 24/86/24
f 32/42/32 18/19/18 17/18/17
f 44/71/44 43/66/43 45/87/45
f 39/53/39 46/88/46 38/52/38
f 26/89/26 42/90/42 29/35/29
f 40/54/40 24/81/24 1/91/1
f 32/42/32 43/66/43 33/43/33
f 41/55/41 20/21/20 42/65/42
f 25/27/25 27/29/27 46/88/46
f 8/8/8 4/4/4 6/6/6
f 19/20/19 13/13/13 26/28/26
f 5/5/5 1/91/1 35/47/35
f 29/92/29 27/78/27 26/93/26
f 44/71/44 45/87/45 39/53/39
f 32/42/32 40/54/40 18/19/18
f 42/74/42 3/76/3 2/94/2
f 30/44/30 36/82/36 40/54/40
f 3/95/3 35/96/35 1/97/1
f 23/25/23 1/98/1 24/26/24
f 43/66/43 17/18/17 25/27/25
f 40/54/40 32/42/32 30/44/30
f 11/46/11 38/52/38 27/29/27
f 26/28/26 25/27/25 17/18/17
f 31/72/31 20/21/20 41/55/41
f 43/66/43 25/27/25 46/88/46
f 46/88/46 27/29/27 38/52/38
f 44/71/44 39/53/39 15/16/15
f 12/75/12 42/74/42 13/99/13
f 44/71/44 33/43/33 43/66/43
f 37/100/37 21/23/21 10/22/10
f 46/88/46 39/53/39 45/87/45
f 43/66/43 46/88/46 45/87/45
f 1/91/1 5/5/5 40/54/40
f 31/72/31 41/55/41 22/57/22
f 20/21/20 15/73/15 28/83/28
f 14/101/14 11/11/11 10/10/10
f 7/7/7 6/6/6 3/14/3
f 13/99/13 42/74/42 26/93/26
